<svg xmlns="http://www.w3.org/2000/svg" width="14" height="16" viewBox="0 0 14 16"><g><g><path fill="#fff" d="M13.752 12.434a11.88 11.88 0 0 0-1.369-1.341c-1.278-1.068-1.935-1.032-3.14.118-.803.776-1.332.895-2.172.146a20.721 20.721 0 0 1-1.953-2.044 20.845 20.845 0 0 1-1.442-2.135c-.565-.968-.328-1.46.594-2.09 1.378-.94 1.551-1.57.766-3.04A11.021 11.021 0 0 0 4.005.433c-.32-.41-.794-.557-1.278-.265C1.413.971-.549 2.642.144 6.064c.43 2.09 1.552 3.86 2.857 5.385 1.186 1.45 2.583 2.838 4.426 3.596 3.35 1.36 5.239-.183 6.307-1.306.392-.41.356-.912.018-1.305z"/></g></g></svg>