<svg xmlns="http://www.w3.org/2000/svg" width="47" height="61" viewBox="0 0 47 61"><g><g><g><path fill="#346fcf" d="M28.052 3.217C33.298 2.216 39.188.78 42.422 4.316c4.157 4.542 2.134 14.282-.064 19.333-1.533 3.526-3.223 4.342-3.336 8.455-.141 5.378-1.29 25.511-7.483 26.918-1.846-3.033-1.01-10.365-1.46-14.79-.625-6.14-1.407-6.858-4.626-10.61l-3.951.06c-8.944 10.428-2.267 18.785-6.072 25.384-7.102-2.022-6.926-22.351-7.541-28.281-.308-2.99-2.125-4.582-3.434-7.718-2.335-5.592-3.952-14.58.464-19.03 3.175-3.199 8.87-1.895 14.136-.932l3.301 17.286c.123.63.728 1.04 1.358.923.479-.093.83-.464.924-.918l3.409-17.174zm-4.235 32.17c8.733 5.26.796 24.607 7.864 25.335 6.574.679 8.934-17.995 9.344-24.286.909-13.852 7.781-15.757 5.53-27.71C45.777 4.59 42.894.79 38.69.117c-3.331-.533-8.548.918-12.729 1.553l-.38 1.973.024-.005L23.524 14.1 21.497 3.505l.03.005-.387-2.008C14.258.262 2.6-2.982.406 8.746c-2.135 11.396 4.81 14.932 5.631 27.676.416 6.481 2.74 24.871 9.222 24.305 7.39-.645-1.367-22.254 8.558-25.346z"/></g></g></g></svg>