<svg xmlns="http://www.w3.org/2000/svg" width="45" height="56" viewBox="0 0 45 56"><g><g><g><path fill="#346fcf" d="M6.248 26.173zm-1.997-3.736C2.025 17.102.485 8.532 4.693 4.29c4.22-4.25 11.398-.214 18.018-.272 6.15-.054 13.546-4.036 17.739.544 3.963 4.33 2.038 13.617-.058 18.435-.589 1.353-1.2 2.287-1.729 3.175H6.248c-.625-1.112-1.372-2.239-1.997-3.736zm.996 11.489H38.92V31.71H5.247zm0 5.537H38.92v-2.215H5.247zm0 5.538H38.92v-2.215H5.247zm7.521 11.076h18.628v-2.215H12.768zm-7.521-5.538H38.92v-2.215H5.247zm34.977-22.15c2.057-7.53 5.874-10.53 4.164-19.613-.743-3.946-3.487-7.568-7.5-8.21-4.187-.672-9.632 1.707-14.865 1.647-5.94-.067-19.184-6.531-21.637 6.58-1.595 8.527 2.136 12.438 4.195 19.597z"/></g></g></g></svg>