<svg xmlns="http://www.w3.org/2000/svg" width="74" height="66" viewBox="0 0 74 66"><g><g><path fill="#ff4e4d" d="M67.1 32.957v-5.792c1.44-.5 2.664-1.056 3.63-1.665v5.007c0 .681-1.276 1.567-3.63 2.45zm-.015 15.8c-.132.82-1.99 1.906-5.295 2.927-4.281 1.323-10.98 2.534-19.469 2.91-.434.017-.867.036-1.31.05-.362.012-.725.023-1.094.033-1.002.021-2.018.037-3.066.037a133.268 133.268 0 0 1-4.152-.071c-.446-.015-.882-.033-1.319-.051-8.489-.375-15.187-1.586-19.468-2.909-3.2-.988-5.05-2.039-5.282-2.85a35.704 35.704 0 0 0 2.63.803c.193.052.391.102.59.152 4.407 1.13 10.032 1.93 16.105 2.288l.006.002.004-.002c1.875.112 3.79.18 5.726.204.516.01 1.028.014 1.53.014.667 0 1.349-.008 2.04-.02 1.765-.03 3.508-.095 5.211-.196l.01.002c.006 0 .01-.004.016-.004 2.075-.124 4.083-.302 6.013-.523.008 0 .014.003.021.003.027 0 .048-.013.075-.016a87.755 87.755 0 0 0 7.485-1.18c3.573-.734 6.666-1.684 8.788-2.86.116-.064.225-.13.335-.193.135-.08.263-.161.388-.244.116-.075.25-.147.356-.223 2.389.851 3.047 1.614 3.126 1.917zm-3.614 10.82v-5.792c1.438-.501 2.663-1.056 3.63-1.665v5.007c-.002.681-1.277 1.567-3.63 2.45zM6.6 57.13v-5.01c.967.608 2.191 1.164 3.63 1.665v5.793c-2.353-.882-3.628-1.766-3.63-2.448zm-3.63-13.31v-5.01c.967.609 2.191 1.164 3.63 1.665v5.77l-.69-.268-.015.014c-1.9-.788-2.923-1.56-2.925-2.17zm5.861-11.084c.018.02.046.036.064.055 1.657 1.673 5.087 2.987 9.357 3.967l.302.068c.313.07.631.139.953.205 3.922.835 8.603 1.439 13.703 1.738l.009.001.004-.001c1.639.095 3.315.162 5.026.19a107.775 107.775 0 0 0 4.794-.004c1.582-.033 3.142-.098 4.68-.187.006 0 .01.003.017.003.01 0 .02-.006.03-.006 5.113-.301 9.911-.911 13.968-1.788-.878.46-2.081.935-3.58 1.398-4.518 1.397-11.736 2.669-20.909 2.964-.272.008-.54.018-.817.025-.296.007-.597.012-.899.018-.76.012-1.527.023-2.313.023-1.048 0-2.064-.015-3.066-.038-.368-.009-.731-.021-1.094-.033-.444-.013-.877-.033-1.31-.05-8.49-.376-15.19-1.587-19.47-2.91-3.327-1.028-5.189-2.122-5.297-2.944.135-.455 1.358-1.593 5.848-2.694zM2.972 15.99v-5.01c.966.608 2.19 1.163 3.629 1.664v5.793c-2.353-.882-3.628-1.766-3.63-2.447zM33.22 2.685c19.951 0 30.043 3.14 30.231 4.944-.146.818-2.003 1.898-5.292 2.915-4.281 1.322-10.98 2.533-19.469 2.908-.434.018-.867.037-1.31.051a132.969 132.969 0 0 1-4.16.071c-1.048 0-2.064-.015-3.066-.038-.368-.009-.731-.02-1.094-.033-.444-.013-.877-.033-1.31-.05-8.49-.376-15.19-1.587-19.47-2.91C4.992 9.528 3.137 8.448 2.99 7.63c.189-1.803 10.28-4.944 30.232-4.944zm37.496 19.438c-.111.822-1.973 1.914-5.297 2.942-4.281 1.322-10.98 2.533-19.469 2.908a151.45 151.45 0 0 1-2.404.083c-1.002.023-2.018.038-3.066.038s-2.064-.015-3.066-.038c-.368-.009-.731-.02-1.094-.033-.444-.013-.877-.033-1.31-.05-8.49-.376-15.19-1.587-19.47-2.91-3.297-1.018-5.155-2.103-5.293-2.92.006-.024.006-.043.02-.072.083.02.175.038.258.058.473.113.959.222 1.452.326 2.404.518 5.069.942 7.908 1.267.01 0 .016.004.025.004h.006c1.934.22 3.94.392 6 .515.015 0 .028.008.044.008.008 0 .014-.005.023-.005 1.482.087 2.984.151 4.503.185a105.936 105.936 0 0 0 4.677.016c8.792-.135 16.94-1.18 22.61-2.801.261-.074.517-.15.768-.226.154-.047.311-.093.46-.14.438-.141.858-.285 1.263-.435l.207-.08c.343-.13.672-.264.986-.4l.273-.119c.335-.151.66-.306.96-.467.135-.071.252-.145.38-.218.144-.083.29-.168.424-.254.076-.048.167-.094.24-.143 5.416 1.175 6.844 2.46 6.982 2.961zm-6.564 11.775a56.457 56.457 0 0 1-2.814.687c-.094.02-.193.039-.287.06V28.74c1.285-.253 2.5-.532 3.63-.837v5.846l-.529.148zm-13.828 2.268c-.451.038-.917.062-1.374.095v-6.024c1.227-.08 2.439-.178 3.63-.294v6.003c-.703.074-1.405.148-2.128.208-.043.004-.084.009-.128.012zm8.193-1.033a77.904 77.904 0 0 1-2.58.406c-.307.044-.625.082-.936.121v-5.978a89.29 89.29 0 0 0 3.63-.51v5.94c-.039.008-.076.015-.114.02zM42.881 30.49c1.219-.023 2.437-.06 3.65-.116v6.035c-1.59.08-3.207.123-4.84.14v-6.04c.333-.004.665-.01.998-.015l.192-.004zm-29.02-3.326v5.749c-1.902-.735-3.13-1.485-3.528-2.153l-.081-.135c-.008-.038-.02-.078-.021-.115v-5.011c.967.609 2.191 1.164 3.63 1.665zm6.05 1.575v5.897a50.832 50.832 0 0 1-3.63-.91v-5.823c1.13.305 2.345.585 3.63.836zm3.805 6.606c-.479-.077-.929-.159-1.385-.239v-5.933c1.171.19 2.382.36 3.63.51v5.985a92.827 92.827 0 0 1-2.245-.323zm7.995.904l-.49-.037c-.775-.06-1.53-.127-2.269-.2l-.474-.049c-.033-.004-.064-.008-.097-.01v-6.01c1.19.115 2.403.213 3.63.294v6.03c-.098-.006-.202-.011-.3-.018zM18.7 15.162v5.979c-.24-.032-.489-.057-.726-.09-.155-.022-.303-.045-.455-.066-.7-.1-1.383-.209-2.053-.321l-.396-.07v-5.941c1.171.188 2.382.36 3.63.51zm2.42 6.265v-6.004c1.19.115 2.403.213 3.63.294v6.024a109.721 109.721 0 0 1-3.63-.314zm24.2-6.004v6.002c-1.17.123-2.38.231-3.63.32v-6.028c1.227-.08 2.44-.179 3.63-.294zm8.47 4.694V14.22c1.285-.253 2.5-.532 3.63-.836v5.832a51.905 51.905 0 0 1-3.63.9zm-6.05-4.955c1.247-.15 2.458-.32 3.63-.51v5.93c-1.147.204-2.355.39-3.63.557zm15.452 1.416l-.033-.008-.44.343c-.64.497-1.621 1-2.88 1.487v-5.756c1.44-.5 2.664-1.056 3.63-1.665v5.007c0 .184-.096.382-.277.592zm-27.572-.608c1.219-.023 2.437-.06 3.65-.116v6.037c-.206.01-.403.024-.61.034-.017 0-.034 0-.052.002-.812.036-1.64.063-2.478.082-.13.004-.262.005-.392.009-.431.008-.871.01-1.308.014v-6.044c.333-.003.665-.008.998-.014l.192-.004zm-4.608.004c.332.006.665.01.998.014v6.042a119.98 119.98 0 0 1-4.84-.138v-6.037a126.016 126.016 0 0 0 3.842.119zM9.02 13.384c1.13.305 2.345.584 3.63.837v5.906c-.149-.032-.303-.063-.448-.095a50.972 50.972 0 0 1-3.182-.802zm28.223 23.138a115.145 115.145 0 0 1-2.813-.106v-6.042a126.016 126.016 0 0 0 3.84.12c.333.006.666.01.999.014v6.042c-.59-.006-1.184-.009-1.759-.022l-.267-.006zm16.547 5.527c1.285-.253 2.5-.531 3.63-.836v5.846a52.703 52.703 0 0 1-3.63.896zm-6.05 6.927v-5.984a89.29 89.29 0 0 0 3.63-.51v5.94c-1.14.201-2.351.387-3.63.554zm-5.244.545c-.267.02-.535.041-.806.06v-6.034c1.227-.08 2.44-.178 3.63-.294v6.009c-.748.079-1.513.152-2.298.217l-.526.042zM18.7 42.99v5.985a84.28 84.28 0 0 1-3.63-.554v-5.94c1.171.19 2.382.361 3.63.51zm3.048 6.336l-.368-.037c-.087-.009-.173-.02-.26-.028v-6.008c1.19.115 2.403.213 3.63.294v6.03c-1.017-.073-2.02-.155-3.002-.25zm3.002 7.236c1.19.115 2.403.213 3.63.294v6.034a105.37 105.37 0 0 1-3.63-.318zm-6.05-.77c1.171.19 2.382.36 3.63.51v5.985a84.28 84.28 0 0 1-3.63-.555zm-2.42-.434v5.906a52.709 52.709 0 0 1-3.63-.897v-5.845a53.35 53.35 0 0 0 3.63.836zm41.14 0c1.285-.253 2.5-.531 3.63-.836v5.845a52.706 52.706 0 0 1-3.63.897zm-6.05.943a89.29 89.29 0 0 0 3.63-.51v5.94c-1.14.201-2.351.386-3.63.554zm-2.42.261v6.009c-1.163.122-2.373.23-3.63.318v-6.034c1.227-.08 2.44-.178 3.63-.293zm-9.7.547c1.219-.023 2.437-.06 3.65-.116v6.041a122.25 122.25 0 0 1-4.84.14v-6.048a137.309 137.309 0 0 0 1.19-.017zm-4.608.004c.332.006.665.01.998.014v6.049a122.25 122.25 0 0 1-4.84-.14v-6.042c1.212.057 2.43.094 3.65.116l.192.003zM9.138 47.094a4.28 4.28 0 0 0-.117-.034v-5.846c1.13.305 2.345.584 3.63.836v5.906a55.976 55.976 0 0 1-3.069-.738c-.147-.042-.3-.082-.444-.124zm21.855 2.758c-.554-.01-1.106-.023-1.654-.04l-.203-.007c-.66-.022-1.314-.05-1.964-.08v-6.041a126.016 126.016 0 0 0 3.84.12c.333.006.666.01.999.014v6.048c-.235-.003-.47-.003-.703-.006l-.315-.008zm5.284-.016l-.532.01c-.432.009-.875.011-1.313.015v-6.044c.333-.004.666-.008.998-.014l.193-.004c1.218-.023 2.437-.06 3.649-.116v6.041a107.464 107.464 0 0 1-2.995.111zm27.063-5.623l-.413.361c-.635.56-1.694 1.126-3.086 1.67v-5.769c1.438-.5 2.663-1.056 3.63-1.665v5.007a.77.77 0 0 1-.131.396zm9.797-22.169c-.12-2.07-2.582-3.688-7.507-4.922.166-.363.26-.74.26-1.132V7.525h-.02C65.437.473 36.54.265 33.22.265 29.903.265 1.006.473.573 7.525h-.02v8.468c.005 2.3 2.972 4.099 7.386 5.438-.06.2-.097.405-.109.613h-.018V30.5C3.056 31.723.681 33.318.563 35.354H.551v8.47c.004 1.6 1.447 2.957 3.81 4.089-.09.245-.146.496-.162.752h-.018v8.47c.01 4.024 9.071 6.522 19.14 7.689.073.014.141.044.22.044.023 0 .042-.012.065-.013 1.941.22 3.913.39 5.865.512.041.005.078.024.12.024.023 0 .041-.012.063-.013 2.478.15 4.916.226 7.197.226 2.28 0 4.719-.076 7.197-.227.022 0 .041.013.063.013.042 0 .078-.02.12-.024 1.951-.122 3.924-.292 5.864-.512.023 0 .043.012.066.012.078 0 .146-.03.22-.045 10.068-1.166 19.129-3.666 19.14-7.692v-8.465h-.02c-.085-1.483-1.349-2.721-3.846-3.756.152-.35.236-.712.236-1.089v-7.908c4.343-1.336 7.253-3.123 7.26-5.401v-8.466z"/></g></g></svg>