<svg xmlns="http://www.w3.org/2000/svg" width="61" height="81" viewBox="0 0 61 81"><g><g><g><path fill="#ff4e4d" d="M58.293 72.139a5.645 5.645 0 0 1-5.638 5.638H8.24a5.645 5.645 0 0 1-5.638-5.638V11.071a5.645 5.645 0 0 1 5.638-5.638h15.515a6.864 6.864 0 0 0-.161 1.475v.086h-4.251a4.072 4.072 0 0 0-3.06 1.387H8.24a2.693 2.693 0 0 0-2.69 2.69V72.14a2.693 2.693 0 0 0 2.69 2.69h44.413a2.692 2.692 0 0 0 2.688-2.69V11.071a2.692 2.692 0 0 0-2.688-2.69H44.61a4.067 4.067 0 0 0-3.06-1.387H37.3v-.086c0-.507-.057-1-.162-1.475h15.516a5.645 5.645 0 0 1 5.638 5.638V72.14zm-38.95-56.99h22.209a4.081 4.081 0 0 0 4.075-4.078l-.001-.087h7.029c.047 0 .086.039.086.087V72.14a.087.087 0 0 1-.086.088H8.24a.087.087 0 0 1-.086-.088V11.071c0-.048.039-.087.086-.087h7.03c-.002.029-.004.057-.004.087a4.082 4.082 0 0 0 4.078 4.077zM30.448 2.656a4.256 4.256 0 0 1 4.251 4.25v1.388c0 .719.583 1.301 1.301 1.301h5.553a1.476 1.476 0 0 1 0 2.95H19.344a1.476 1.476 0 0 1-1.475-1.475c0-.813.661-1.475 1.475-1.475h5.552c.718 0 1.301-.582 1.301-1.301V6.908a4.255 4.255 0 0 1 4.25-4.251zm0 8.327a1.3 1.3 0 0 0 1.301-1.302V6.908a1.3 1.3 0 1 0-2.602 0v2.774a1.3 1.3 0 0 0 1.301 1.302zM29.06 30.415h16.655a1.302 1.302 0 0 0 0-2.602H29.06a1.302 1.302 0 0 0 0 2.602zm-14.8-2.221a1.301 1.301 0 0 0 0 1.84l2.777 2.776a1.3 1.3 0 0 0 1.84 0l5.552-5.552a1.301 1.301 0 1 0-1.84-1.84l-4.632 4.632-1.856-1.856a1.301 1.301 0 0 0-1.84 0zm14.8 16.1h16.655a1.302 1.302 0 0 0 0-2.602H29.06a1.302 1.302 0 0 0 0 2.602zm-6.473-4.997l-4.63 4.632-1.857-1.856a1.3 1.3 0 1 0-1.84 1.84l2.777 2.776a1.3 1.3 0 0 0 1.84 0l5.552-5.552a1.301 1.301 0 1 0-1.84-1.84zm6.473 18.877h16.655a1.301 1.301 0 0 0 0-2.603H29.06a1.302 1.302 0 0 0 0 2.603zm-6.473-4.998l-4.63 4.632-1.857-1.856a1.301 1.301 0 0 0-1.84 1.84l2.777 2.777a1.3 1.3 0 0 0 1.84 0l5.552-5.553a1.301 1.301 0 1 0-1.84-1.84zM52.654 2.83H35.999l-.046.002a6.845 6.845 0 0 0-11.011 0l-.046-.002H8.241C3.697 2.83 0 6.527 0 11.071V72.14c0 4.544 3.697 8.24 8.24 8.24h44.414c4.544 0 8.24-3.696 8.24-8.24V11.071c0-4.544-3.696-8.24-8.24-8.24z"/></g></g></g></svg>