<svg xmlns="http://www.w3.org/2000/svg" width="58" height="61" viewBox="0 0 58 61"><g><g><g><g><path fill="#346fcf" d="M44.623 61c.626-4.532 2.585-27.44 3.796-31.665 3.45-12.036 9.849-13.85 2.798-28.426 3.39 2.158 3.749 3.275 5.046 7.056.905 5.297 1.41 7.287-.004 12.578-2.093 7.82-3.44 9.943-5.538 19.26-2.381 13.931-.475 6.832-6.097 21.197z"/></g></g><g/><g><path fill="#346fcf" d="M15.187 58.119v-.002h.001zm0-.002C8.2 56.125 8.372 36.121 7.77 30.287c-.304-2.942-2.09-4.505-3.38-7.593C2.092 17.189.504 8.346 4.847 3.97 9.2-.418 16.607 3.75 23.44 3.688c6.345-.056 13.976-4.163 18.303.563 4.09 4.468 2.102 14.052-.06 19.023-1.511 3.471-3.175 4.272-3.283 8.319-.142 5.293-1.272 25.103-7.363 26.486-1.816-2.986-.992-10.2-1.435-14.554-.614-6.042-1.384-6.749-4.551-10.441l-3.89.057c-8.8 10.263-2.231 18.483-5.973 24.976zm15.982 1.64c6.47.67 8.79-17.709 9.196-23.895.893-13.63 7.654-15.506 5.44-27.267-.766-4.07-3.599-7.81-7.74-8.472-4.322-.693-9.938 1.762-15.34 1.7C16.598 1.754 2.93-4.915.4 8.614-1.7 19.83 5.132 23.305 5.939 35.847c.41 6.378 2.695 24.473 9.073 23.919 7.271-.633-1.344-21.896 8.42-24.94 8.594 5.177.78 24.213 7.737 24.932z"/></g></g></g></svg>