<svg xmlns="http://www.w3.org/2000/svg" width="99" height="69" viewBox="0 0 99 69"><g><g><path fill="#ff4e4d" d="M90.562 27.612a1.467 1.467 0 1 1-2.935 0 1.467 1.467 0 0 1 2.935 0zm3.95-1.641L72.257 3.717l-7.056 7.06L87.453 33.03zm-24.71 17.166l11.702-11.701-18.48-18.483-1.264 1.264c-.6.602-1.577.602-2.176 0a5.772 5.772 0 0 0-8.152 0L40.569 25.079a2.115 2.115 0 0 0 0 2.988 2.115 2.115 0 0 0 2.988 0l5.696-5.695c.6-.6 1.574-.603 2.176 0a5.772 5.772 0 0 0 8.152 0 1.536 1.536 0 0 1 2.176 0c.602.599.602 1.573 0 2.176a8.843 8.843 0 0 1-8.2 2.368l16.246 16.22zm-1.127 6.265c.838-.838.862-2.179.05-2.988l-19.59-19.563-3.399 3.398a5.185 5.185 0 0 1-3.67 1.518 5.172 5.172 0 0 1-3.67-1.518 5.2 5.2 0 0 1 0-7.343l8.55-8.55-.132-.134a5.726 5.726 0 0 0-4.077-1.688c-1.539 0-2.985.599-4.075 1.688-.6.6-1.574.6-2.176 0l-1.264-1.263-18.483 18.48 11.887 11.887a5.14 5.14 0 0 1 2.44-.611 5.196 5.196 0 0 1 5.19 5.164 5.198 5.198 0 0 1 5.164 5.164 5.196 5.196 0 0 1 5.164 5.164 5.197 5.197 0 0 1 5.167 5.19c0 .738-.154 1.441-.434 2.079a2.107 2.107 0 0 0 1.866-.585 2.115 2.115 0 0 0 0-2.988l-8.542-8.541a1.536 1.536 0 0 1 0-2.176c.6-.6 1.574-.6 2.176 0l8.542 8.541a2.115 2.115 0 0 0 2.988 0 2.115 2.115 0 0 0 0-2.988l-8.542-8.541a1.536 1.536 0 0 1 0-2.176 1.536 1.536 0 0 1 2.176 0l8.539 8.541a2.112 2.112 0 0 0 2.988-.003c.398-.398.62-.93.62-1.494s-.222-1.095-.62-1.494l-8.542-8.541a1.536 1.536 0 0 1 0-2.176c.6-.6 1.574-.6 2.176 0l8.542 8.541a2.115 2.115 0 0 0 2.988 0zM46.557 65.508a2.115 2.115 0 0 0 2.111-2.114 2.113 2.113 0 1 0-2.111 2.114zm-3.673-5.78a2.116 2.116 0 0 0-2.988-2.99 2.09 2.09 0 0 0-.62 1.492c0 .564.219 1.096.62 1.494.399.399.93.62 1.494.62s1.096-.221 1.494-.62zm-6.658-4.554a2.115 2.115 0 0 0 2.114-2.11 2.116 2.116 0 0 0-2.114-2.115 2.115 2.115 0 0 0 0 4.228zm-5.164-5.16a2.116 2.116 0 0 0 2.114-2.115 2.115 2.115 0 0 0-4.228.003c0 1.164.95 2.111 2.114 2.111zm1.978-39.237l-7.06-7.06L3.728 25.971l7.06 7.06zm64.735 14.107c.6.6.6 1.574 0 2.176l-9.235 9.236a1.542 1.542 0 0 1-2.18 0l-2.683-2.687L71.81 45.475c1.016 1.952.691 4.438-.965 6.094a5.162 5.162 0 0 1-3.644 1.518 5.16 5.16 0 0 1-1.52 3.646 5.154 5.154 0 0 1-3.646 1.521 5.186 5.186 0 0 1-5.164 5.161 5.18 5.18 0 0 1-5.191 5.164 5.217 5.217 0 0 1-2.566-.676c-.756.431-1.63.679-2.563.679a5.16 5.16 0 0 1-3.67-1.52 5.164 5.164 0 0 1-1.517-3.647 5.139 5.139 0 0 1-3.647-1.518 5.152 5.152 0 0 1-1.52-3.643 5.194 5.194 0 0 1-5.164-5.164 5.197 5.197 0 0 1-5.167-5.19c0-.863.212-1.675.587-2.392l-11.899-11.9-2.683 2.685a1.538 1.538 0 0 1-2.18 0L.457 27.057a1.53 1.53 0 0 1 0-2.173L24.888.452c.29-.287.682-.45 1.09-.45.41 0 .8.16 1.09.45l9.235 9.235 1.358 1.358a8.77 8.77 0 0 1 5.07-1.594c2.362 0 4.582.918 6.253 2.59l.133.132.133-.133c3.076-3.079 7.874-3.41 11.323-.995l1.358-1.358L71.167.452c.29-.287.682-.45 1.09-.45.41 0 .8.16 1.089.45l24.432 24.432zm-87.59 1.692c.572.573.572 1.5 0 2.073a1.468 1.468 0 0 1-2.076 0 1.465 1.465 0 0 1 0-2.073 1.468 1.468 0 0 1 2.076 0z"/></g></g></svg>