<svg xmlns="http://www.w3.org/2000/svg" width="54" height="69" viewBox="0 0 54 69"><g><g><g><g><path fill="#346fcf" d="M29.568 53.012a25.958 25.958 0 0 0-.066-2.306l-2.201.18c.057.699.063 1.406.058 2.107zm-.166 4.446h-.001zm.097-2.199l-2.207-.096c-.035.737-.072 1.476-.098 2.214l2.207.081c.026-.732.063-1.466.098-2.199zm.014 6.427a18.473 18.473 0 0 1-.144-2.079l-2.209.037c.015.78.058 1.553.163 2.327zm1.39 3.413a4.628 4.628 0 0 1-.93-1.52l-2.065.78c.315.826.76 1.576 1.361 2.226zm3.27 1.472c-.602-.082-1.276-.238-1.832-.487l-.906 2.015c.759.334 1.602.546 2.422.658l.315-2.186zm3.54-.322c-.478.293-.916.45-1.48.45l-.03 2.208c1.005 0 1.843-.264 2.693-.794zm2.422-2.95a11.51 11.51 0 0 1-1.084 1.685l1.718 1.387c.484-.6.951-1.34 1.31-2.022l-1.942-1.05zm1.634-3.897a29.098 29.098 0 0 1-.742 2l2.04.848c.29-.706.553-1.418.795-2.14l-2.093-.706zm1.169-4.155c-.168.705-.35 1.4-.541 2.098l2.127.597c.203-.723.388-1.45.562-2.18l-2.148-.515zm.874-4.261h.001zm-.407 2.14l2.164.442c.15-.731.29-1.464.419-2.2l-2.175-.382a84.754 84.754 0 0 1-.408 2.14zm1.068-6.458zm-.306 2.162l2.184.335c.117-.73.223-1.479.312-2.211l-2.19-.286c-.087.717-.19 1.45-.306 2.162zm.777-6.504zm-.21 2.167l2.195.245c.098-.719.157-1.499.217-2.227l-2.202-.185c-.06.723-.132 1.447-.21 2.167zm.626-6.622a44.82 44.82 0 0 0-.25 2.252l2.202.185c.063-.715.139-1.426.237-2.138l-2.189-.299zm.88-4.458a38.37 38.37 0 0 0-.506 2.22l2.169.419c.136-.701.296-1.397.476-2.088l-2.14-.551zm1.395-4.32c-.265.713-.52 1.414-.757 2.137l2.103.677c.233-.685.466-1.348.718-2.027l-2.064-.787zm1.705-4.119l-.865 2.037 2.037.855c.285-.678.575-1.353.862-2.03zm1.492-4.018zm-.68 2.008l2.065.787c.257-.689.552-1.468.735-2.175l-2.12-.62c-.169.648-.44 1.38-.68 2.008zm1.416-6.109c0 .584-.145 1.478-.252 2.065l2.173.396c.12-.66.285-1.662.285-2.318l-2.205-.143zm-.151-4.201c.088.703.148 1.398.177 2.106l2.208-.083a28.255 28.255 0 0 0-.192-2.294l-2.192.272zm-.924-4.034c.245.646.434 1.273.58 1.948l2.162-.46a16.088 16.088 0 0 0-.68-2.279zm-2.06-3.44c.44.501.83 1.047 1.173 1.62l1.904-1.12a13.7 13.7 0 0 0-1.414-1.952zm-3.131-2.328c.57.247 1.19.6 1.681.982l1.332-1.762A10.424 10.424 0 0 0 46.191.83zM43.753.116a13.91 13.91 0 0 0-2.34-.15l.039 2.21h.001l2.3-2.06zm-.308 2.188l.008.001-.008-.001zm.38-2.176l-.07-.011-.35 2.18.04.007zm-.42 2.17a11.63 11.63 0 0 0-1.952-.122h-.001l1.952.122zm-6.157.376c.709-.125 1.407-.242 2.122-.335L39.093.147a49.42 49.42 0 0 0-2.241.355l.396 2.173zm-4.332.844c.728-.135 1.456-.279 2.181-.427L34.665.925c-.716.146-1.436.288-2.155.421zm-4.492.626h-.001zm2.271-.254l-.318-2.186c-.69.108-1.422.188-2.118.237l.165 2.203a28.42 28.42 0 0 0 2.271-.254zm-6.924.057c.765.119 1.55.225 2.325.254l.075-2.207a20.16 20.16 0 0 1-2.063-.23l-.337 2.183zm-4.382-.82c.722.138 1.446.278 2.167.422l.418-2.168c-.724-.136-1.445-.285-2.17-.423l-.416 2.169zm-4.276-.673zm2.131.29l.357-2.179C16.86.438 16.1.339 15.354.259l-.24 2.195c.709.076 1.425.173 2.13.29zm-6.312-.36h-.001zm2.071-.072L13.06.105a19.969 19.969 0 0 0-2.34.08l.213 2.198c.698-.065 1.37-.084 2.071-.07zm-5.87 1.169a8.725 8.725 0 0 1 1.81-.733L8.366.616c-.804.23-1.543.517-2.277.917zM4.361 6.114A8.16 8.16 0 0 1 5.59 4.61L4.075 3.003A10.374 10.374 0 0 0 2.51 4.91zM2.838 9.85c.162-.662.366-1.326.62-1.957L1.412 7.06a17.078 17.078 0 0 0-.717 2.25l2.142.539zm-.614 4.163c.039-.701.116-1.406.218-2.1l-2.184-.329a25.332 25.332 0 0 0-.24 2.293zm.184 4.177c-.103-.701-.166-1.375-.202-2.082L0 16.2c.033.779.111 1.54.223 2.312l2.186-.322zm1.026 4.086c-.218-.685-.425-1.334-.607-2.031l-2.142.54c.19.754.422 1.464.657 2.201zm1.571 4.054c-.277-.674-.56-1.35-.823-2.031l-2.056.807c.273.69.553 1.376.836 2.064l2.044-.84zm1.627 4.163v.002zM5.84 28.39l-2.053.813c.267.667.526 1.352.763 2.03l2.081-.74a53.889 53.889 0 0 0-.79-2.103zm2.077 6.455h-.001v.002zm-.583-2.198l-2.116.632c.202.685.387 1.375.548 2.07l2.15-.503a35.734 35.734 0 0 0-.582-2.199zm1.338 6.683a37.695 37.695 0 0 0-.309-2.249l-2.178.365c.118.708.215 1.414.292 2.127zm.37 4.417c-.066-.725-.13-1.447-.188-2.174l-2.203.16c.056.745.125 1.485.193 2.229l2.2-.215zm.523 4.337c-.1-.723-.196-1.443-.285-2.166l-2.193.265c.09.74.19 1.475.29 2.214l2.188-.312zm.716 4.307c-.133-.716-.263-1.429-.383-2.148l-2.18.36c.122.737.257 1.468.394 2.202zm.952 4.24zm-.51-2.11L8.567 55c.166.733.34 1.458.528 2.185l2.137-.553c-.182-.7-.35-1.403-.509-2.11zm1.795 6.212a40.883 40.883 0 0 1-.696-2.027l-2.11.652c.225.726.472 1.44.738 2.152l2.068-.775zm1.84 3.718a15.301 15.301 0 0 1-1.01-1.779l-1.99.959c.352.726.727 1.383 1.17 2.057l1.832-1.235zm2.698 2.206c-.55-.109-1.02-.393-1.442-.751l-1.458 1.66c.681.598 1.547 1.075 2.44 1.252l.46-2.16zm3.751-.42a7.248 7.248 0 0 1-1.876.405l.195 2.2c.842-.081 1.635-.23 2.43-.526l-.749-2.078zm2.41-2.39c-.22.536-.537 1.068-.953 1.475L23.81 66.9a6.617 6.617 0 0 0 1.444-2.2zm.736-3.967c-.043.698-.11 1.39-.224 2.082l2.178.368a21.84 21.84 0 0 0 .25-2.309l-2.203-.141zm.142-4.38c-.023.739-.035 1.477-.058 2.215l2.207.057c.024-.734.036-1.468.06-2.2zm.413-4.549a25.325 25.325 0 0 0-.287 2.29l2.202.178a24.1 24.1 0 0 1 .262-2.092zm4.632-2.61a8.493 8.493 0 0 0-.954-2.339l-1.398.853-.749-.414c-.399.713-.708 1.437-.966 2.212l2.1.689c.06-.184.124-.365.194-.546l1.771-.454z"/></g><g><path fill="#346fcf" d="M19.227 61.721c-6.755-1.924-6.588-21.259-7.17-26.898-.293-2.843-2.02-4.355-3.267-7.34-2.22-5.32-3.756-13.867.443-18.097 4.209-4.24 11.368-.214 17.971-.272 6.132-.054 13.509-4.025 17.691.543 3.952 4.319 2.032 13.582-.058 18.387-1.46 3.355-3.068 4.13-3.173 8.04-.137 5.117-1.228 24.265-7.116 25.6-1.756-2.886-.96-9.858-1.387-14.066-.593-5.84-1.339-6.523-4.399-10.092l-3.76.056c-8.507 9.92-2.155 17.864-5.774 24.14zm7.97-22.513c8.308 5.003.755 23.402 7.479 24.098 6.254.647 8.495-17.116 8.887-23.095.863-13.173 7.398-14.986 5.26-26.353-.742-3.935-3.479-7.548-7.481-8.19-4.177-.67-9.606 1.702-14.826 1.643C20.59 7.244 7.384.797 4.936 13.875c-2.03 10.84 4.575 14.198 5.354 26.321.397 6.164 2.603 23.653 8.768 23.117 7.029-.61-1.299-21.163 8.139-24.105z"/></g></g></g></g></svg>