<svg xmlns="http://www.w3.org/2000/svg" width="54" height="70" viewBox="0 0 54 70"><g><g><g><path fill="#346fcf" d="M36.004 16.77c.084.503.482.874.961.947l7.436 1.24.034.35-7.485 1.247a1.15 1.15 0 0 0-.948.962l-1.416 8.496-1.42-8.513a1.15 1.15 0 0 0-.962-.948l-8.496-1.416 8.513-1.42a1.15 1.15 0 0 0 .947-.962l.954-5.722c.307-.036.61-.066.911-.09l.972 5.827zm8.49 4.858v-.002zm0 0c-.122 3.905-1.258 8.015-2.445 10.745-1.523 3.503-3.202 4.311-3.31 8.393-.143 5.339-1.283 25.325-7.428 26.72-1.833-3.013-1.002-10.291-1.448-14.683-.62-6.095-1.398-6.808-4.592-10.534l-3.925.06c-8.878 10.354-2.249 18.645-6.026 25.196-7.051-2.008-6.876-22.189-7.484-28.074-.307-2.969-2.109-4.546-3.41-7.661-2.317-5.554-3.92-14.474.462-18.89 4.392-4.425 11.864-.221 18.757-.283 2.585-.023 5.381-.712 8.084-1.212l-.696 4.174-14.49 2.417a1.15 1.15 0 0 0-.017 2.272l14.505 2.419 2.417 14.49a1.15 1.15 0 0 0 2.272.017l2.42-14.506zm-7.126-10.681c1.8.17 3.423.798 4.742 2.239.85.93 1.44 2.078 1.821 3.36l-5.792-.966-.773-4.633zm-2.654-1.923l-.262.032.133-.8.127.768zM31.44 69.18c6.528.676 8.867-17.864 9.277-24.106.798-12.18 6.242-15.057 5.921-23.803l5.99-1A1.15 1.15 0 0 0 52.646 18l-6.583-1.098c-.942-3.841-3.711-7.248-7.662-7.881a10.24 10.24 0 0 0-1.374-.12l-1.303-7.81a1.15 1.15 0 0 0-2.272-.016l-1.396 8.372c-2.931.555-6.066 1.323-9.13 1.289-6.183-.07-19.97-6.8-22.524 6.85-2.117 11.313 4.776 14.82 5.59 27.473.413 6.433 2.717 24.687 9.152 24.13 7.336-.638-1.355-22.088 8.493-25.16 8.67 5.222.788 24.425 7.804 25.151z"/></g></g></g></svg>