<svg xmlns="http://www.w3.org/2000/svg" width="64" height="74" viewBox="0 0 64 74"><g><g><g><path fill="#ff4e4d" d="M44.779 69.74c5.407 1.446 10.635 1.422 15.572-.07-2.495-4.255-2.927-11.327-2.61-20.979-.37.115-.753.2-1.146.253-1.59 8.954-7.965 16.272-16.376 19.213a32.966 32.966 0 0 0 4.56 1.585zm-12.784-2.987c12.234 0 22.189-9.954 22.189-22.189v-5.54c-8.488.09-16.28-1.548-23.18-4.868-4.588-2.207-7.845-4.726-9.858-6.565-2.366 4.403-6.097 6.984-11.34 7.847v9.126c0 12.235 9.953 22.19 22.189 22.19zM3.636 69.67c8.43 2.531 16.085.226 20.128-1.515-8.408-2.942-14.78-10.257-16.37-19.21a7.093 7.093 0 0 1-1.148-.252c.318 9.65-.116 16.723-2.608 20.977zm3.417-23.654v.001zm0 0c-.029-.48-.044-.965-.044-1.45v-7.209a4.55 4.55 0 0 0-3.144 4.322 4.55 4.55 0 0 0 3.188 4.337zm.688-30.184c-2.475 4.82-2.55 10.063-2.144 19.068.45-.187.921-.33 1.41-.425v-.257c0-.712.538-1.312 1.248-1.388 5.588-.61 9.137-3.194 11.168-8.136a1.396 1.396 0 0 1 2.3-.435c2.782 2.901 13.205 12.174 32.46 11.97v-3.177a1.398 1.398 0 0 1 2.796 0v1.422c.489.095.96.238 1.41.425.407-9.008.333-14.25-2.142-19.068-1.86-3.62-4.908-6.668-9.056-9.056a30.421 30.421 0 0 0-16.282-4.03c-4.864.174-9.382 2.53-12.4 6.465a1.394 1.394 0 0 1-1.1.548c-3.825.044-7.346 2.036-9.188 5.2-.167.286-.328.58-.478.874zm49.239 28.73c0 .488-.017.972-.044 1.452a4.55 4.55 0 0 0 3.188-4.336c0-2.018-1.32-3.73-3.144-4.322v7.207zm6.644 24.882a1.4 1.4 0 0 1-.543 2.245c-2.593.98-6.175 1.893-10.522 1.893-2.608 0-5.493-.33-8.604-1.17-4.052-1.096-6.911-2.634-7.886-3.201a25.095 25.095 0 0 1-8.153 0c-.975.566-3.833 2.105-7.886 3.2a33.305 33.305 0 0 1-8.65 1.17c-3.222 0-6.79-.499-10.477-1.892a1.396 1.396 0 0 1-.543-2.243C3.635 65.82 3.773 56.58 3.386 47.02a7.318 7.318 0 0 1-.496-10.176c-.476-9.75-.73-16.268 2.365-22.293.173-.337.358-.675.55-1.003 2.224-3.822 6.357-6.294 10.902-6.565C20.226 2.699 25.329.145 30.81-.051A33.19 33.19 0 0 1 48.587 4.35c4.623 2.662 8.038 6.095 10.147 10.202 3.093 6.022 2.84 12.542 2.364 22.292a7.32 7.32 0 0 1-.497 10.18c-.387 9.56-.25 18.799 3.025 22.425zM15.288 40.42a5.1 5.1 0 0 1 7.204 0 1.397 1.397 0 0 1-.99 2.387c-.358 0-.716-.137-.989-.41a2.298 2.298 0 0 0-3.248 0 1.397 1.397 0 1 1-1.977-1.977zM48.7 42.397a1.392 1.392 0 0 1-1.976 0 2.3 2.3 0 0 0-3.25 0 1.397 1.397 0 1 1-1.976-1.977 5.1 5.1 0 0 1 7.203 0c.547.547.547 1.43 0 1.977zM36.83 55.582a1.397 1.397 0 1 1 1.977 1.977 9.61 9.61 0 0 1-6.814 2.817 9.61 9.61 0 0 1-6.813-2.817 1.397 1.397 0 1 1 1.977-1.977c2.668 2.667 7.007 2.667 9.674 0z"/></g></g></g></svg>