<svg xmlns="http://www.w3.org/2000/svg" width="84" height="86" viewBox="0 0 84 86"><g><g><g><path fill="#ff4e4d" d="M41.996 33.49c.457 0 .904.186 1.228.506.32.324.506.771.506 1.228 0 .456-.185.904-.506 1.226-.324.323-.77.508-1.228.508-.455 0-.9-.185-1.225-.508a1.744 1.744 0 0 1-.508-1.226c0-.458.185-.904.508-1.228.323-.32.77-.505 1.225-.505zm1.228 13.077c.32.322.506.77.506 1.226 0 .458-.185.904-.506 1.225a1.75 1.75 0 0 1-1.228.509 1.739 1.739 0 0 1-1.733-1.733 1.74 1.74 0 0 1 1.733-1.735c.457 0 .904.186 1.228.508zM59.4 37.971l10.613-25.798-11.317-3.31-1.913 8.594-.13.58-11.3 50.739 19.61-25.047-4.993-3.706a1.732 1.732 0 0 1-.57-2.052zM41.998 67.9l11.016-49.468-8.513-3.357a1.74 1.74 0 0 1-.223-.108 5.842 5.842 0 0 1-2.282.461 5.84 5.84 0 0 1-2.28-.461c-.071.04-.145.078-.223.108l-8.512 3.357 11.017 49.469zM19.03 43.73l19.61 25.047L25.297 8.864l-11.316 3.31L24.594 37.97a1.734 1.734 0 0 1-.57 2.052l-4.994 3.706zm11.643-28.903l6.182-2.436a5.822 5.822 0 0 1-.732-2.836c0-1.027.264-1.994.732-2.836l-6.182-2.437zm8.916-5.272a2.41 2.41 0 0 0 2.407 2.409 2.41 2.41 0 0 0 2.409-2.409 2.411 2.411 0 0 0-2.409-2.408 2.411 2.411 0 0 0-2.407 2.408zm7.55-2.835c.466.842.732 1.808.732 2.836a5.847 5.847 0 0 1-.731 2.835l6.18 2.437V4.28l-6.18 2.437zm35.296 5.475a1.734 1.734 0 0 1-.972 3.327l-8.103-2.369-10.24 24.89 5.339 3.961a1.734 1.734 0 0 1 .331 2.462L43.732 76.473v7.006a1.734 1.734 0 0 1-3.467 0v-7.007l-25.06-32.007a1.738 1.738 0 0 1 .331-2.462l5.34-3.961-10.24-24.89-8.102 2.37a1.733 1.733 0 0 1-2.221-1.644v-.037a1.733 1.733 0 0 1 1.247-1.647l25.646-7.511v-2.95a1.734 1.734 0 0 1 2.37-1.612s10.069 3.978 10.14 4.02a5.826 5.826 0 0 1 2.28-.462c.81 0 1.58.164 2.282.461.071-.04 10.14-4.019 10.14-4.019a1.75 1.75 0 0 1 .61-.12h.055a1.734 1.734 0 0 1 1.704 1.733v2.894l25.646 7.567zm-39.212 9.234c.321.324.506.771.506 1.228 0 .455-.185.902-.506 1.224-.323.325-.77.51-1.227.51a1.74 1.74 0 0 1-1.733-1.733c0-.46.184-.905.507-1.229.324-.32.77-.506 1.226-.506.457 0 .904.185 1.227.506z"/></g></g></g></svg>