<svg xmlns="http://www.w3.org/2000/svg" width="76" height="46" viewBox="0 0 76 46"><g><g><g><path fill="#346fcf" d="M19.251 21.284a3.05 3.05 0 0 0 .896-2.16c0-7.882-1.96-12.84-4.473-14.947-.854-.715-1.756-1.073-2.64-1.07-.88 0-1.785.362-2.64 1.077C7.87 6.299 5.893 11.268 5.893 19.12c0 .842.346 1.607.899 2.16a3.05 3.05 0 0 0 2.16.9h8.133c.845 0 1.61-.344 2.16-.897l.003-.003zm3.27-2.16c0 .842.346 1.608.898 2.16a3.05 3.05 0 0 0 2.16.9h8.133c.845 0 1.61-.344 2.16-.896l.004-.004a3.05 3.05 0 0 0 .895-2.16c0-7.853-1.976-12.821-4.501-14.937-.855-.718-1.76-1.077-2.64-1.077-.883 0-1.785.356-2.64 1.07-2.513 2.107-4.473 7.062-4.473 14.947zm29.985 2.16a3.05 3.05 0 0 0 .896-2.16c0-7.882-1.96-12.84-4.473-14.947-.854-.715-1.757-1.073-2.64-1.07-.88 0-1.785.362-2.64 1.077-2.525 2.115-4.501 7.084-4.501 14.937 0 .842.346 1.607.899 2.16a3.05 3.05 0 0 0 2.16.9h8.133c.845 0 1.61-.344 2.16-.897l.003-.003zM37.963 24.24c.127-.16.263-.312.406-.455l.004-.003c.143-.143.295-.28.454-.406a5.115 5.115 0 0 1-.87-.87 5.528 5.528 0 0 1-.407.454l-.003.003a5.53 5.53 0 0 1-.455.406 5.115 5.115 0 0 1 .87.87zm17.812-5.115c0 .842.346 1.608.9 2.16a3.05 3.05 0 0 0 2.16.9h8.132c.845 0 1.61-.344 2.16-.896l.003-.004a3.05 3.05 0 0 0 .896-2.16c0-7.853-1.976-12.821-4.501-14.937-.855-.718-1.76-1.077-2.64-1.077-.883 0-1.786.356-2.64 1.07-2.513 2.107-4.473 7.062-4.473 14.947zM54.59 24.24c.127-.16.264-.312.407-.455l.003-.003c.143-.143.295-.28.454-.406a5.112 5.112 0 0 1-.87-.87 5.525 5.525 0 0 1-.407.454l-.003.003c-.143.143-.295.28-.454.406.162.127.314.267.46.41.146.146.283.299.41.46zm-35.084 10.49zm-12.965 0c.782 3.837 2.198 6.442 3.853 7.827.855.718 1.76 1.077 2.64 1.077.884 0 1.786-.356 2.64-1.07 1.646-1.38 3.056-3.987 3.832-7.834zm29.586 0H23.162c.775 3.85 2.186 6.455 3.831 7.834.855.714 1.757 1.073 2.64 1.07.88 0 1.786-.362 2.64-1.077 1.652-1.385 3.069-3.99 3.854-7.827zm16.636 0zm-12.964 0c.781 3.837 2.198 6.442 3.853 7.827.855.718 1.76 1.077 2.64 1.077.883 0 1.786-.356 2.64-1.07 1.646-1.38 3.056-3.987 3.831-7.834zm29.585 0H56.42c.775 3.85 2.186 6.455 3.831 7.834.855.714 1.757 1.073 2.64 1.07.88 0 1.785-.362 2.64-1.077 1.652-1.385 3.069-3.99 3.853-7.827zm.382-2.374c.174-1.442.27-3.02.27-4.736 0-.842-.347-1.608-.9-2.16a3.05 3.05 0 0 0-2.16-.9h-8.132a3.063 3.063 0 0 0-3.06 3.06c0 1.719.093 3.294.264 4.736zm-16.625 0c.172-1.439.264-3.017.264-4.736 0-.842-.346-1.608-.899-2.16a3.05 3.05 0 0 0-2.16-.9h-8.133a3.063 3.063 0 0 0-3.059 3.06c0 1.715.095 3.294.27 4.736zm-16.63 0c.175-1.442.27-3.02.27-4.736 0-.842-.346-1.608-.9-2.16a3.05 3.05 0 0 0-2.16-.9H25.59a3.063 3.063 0 0 0-3.06 3.06c0 1.719.093 3.294.265 4.736zm-16.624 0c.171-1.439.263-3.017.263-4.736 0-.842-.346-1.608-.899-2.16a3.05 3.05 0 0 0-2.16-.9H8.96a3.063 3.063 0 0 0-3.06 3.06c0 1.715.096 3.294.27 4.736zm-16.103 0a41.418 41.418 0 0 1-.26-4.736c0-1.493.609-2.85 1.594-3.835l.003-.003a5.53 5.53 0 0 1 .454-.406 5.42 5.42 0 0 1-2.055-4.25c0-8.63 2.35-14.24 5.356-16.759 1.29-1.08 2.716-1.623 4.162-1.626 1.445-.003 2.868.537 4.158 1.617 1.69 1.417 3.17 3.818 4.14 7.205.968-3.383 2.449-5.788 4.139-7.205 1.29-1.08 2.716-1.62 4.158-1.617 1.446.003 2.872.543 4.162 1.626 1.703 1.427 3.192 3.844 4.168 7.244.975-3.4 2.465-5.817 4.168-7.244C43.42 1.286 44.847.743 46.292.74c1.446-.003 2.869.537 4.159 1.617 1.69 1.417 3.17 3.818 4.14 7.205.968-3.383 2.448-5.788 4.138-7.205 1.29-1.08 2.717-1.62 4.159-1.617 1.445.003 2.872.543 4.162 1.626 3.005 2.517 5.356 8.127 5.356 16.758 0 1.49-.61 2.847-1.595 3.835l-.003.003c-.143.143-.296.28-.455.406a5.42 5.42 0 0 1 2.055 4.25c0 1.697-.091 3.276-.26 4.737h3.784v2.374h-4.143c-.89 4.679-2.655 7.903-4.736 9.644-1.29 1.08-2.716 1.624-4.162 1.627-1.445.003-2.869-.537-4.158-1.617-1.69-1.417-3.17-3.819-4.14-7.205-.969 3.383-2.449 5.788-4.14 7.205-1.289 1.08-2.715 1.62-4.158 1.617-1.445-.003-2.871-.543-4.161-1.627-1.703-1.426-3.193-3.844-4.168-7.243-.975 3.4-2.465 5.817-4.168 7.243-1.29 1.08-2.716 1.624-4.162 1.627-1.445.003-2.868-.537-4.158-1.617-1.69-1.417-3.17-3.819-4.14-7.205-.968 3.383-2.449 5.788-4.139 7.205-1.29 1.08-2.716 1.62-4.158 1.617-1.446-.003-2.872-.543-4.162-1.627-2.08-1.74-3.844-4.965-4.736-9.644H0v-2.374zm17.551-9.85zm-.406.454l-.003.003c-.143.143-.296.28-.455.406.162.127.315.267.46.41.147.146.284.299.41.46.128-.158.264-.31.407-.454l.004-.003c.142-.143.295-.28.454-.406a5.115 5.115 0 0 1-.87-.87 5.526 5.526 0 0 1-.407.454z"/></g><g><path fill="#346fcf" d="M0 12.176h75.932v2.374H0z"/></g></g></g></svg>