<svg xmlns="http://www.w3.org/2000/svg" width="82" height="82" viewBox="0 0 82 82"><g><g><g><path fill="#ff4e4d" d="M78.43 71.034l-7.382 7.387c-1.089 1.09-3.01 1.09-4.096 0l-2.118-2.114 11.48-11.479 2.114 2.114a2.898 2.898 0 0 1 0 4.092zM16.96 20.05l.02-.02c.52-.34 1-.733 1.448-1.161.04-.034.074-.067.114-.1.439-.427.84-.894 1.207-1.394.012-.02.039-.042.053-.066l17.85 16.522c-.113.094-.22.196-.326.294-.072.066-.146.128-.22.202l-2.784 2.781c-.06.062-.114.128-.174.188-.113.126-.226.246-.333.374L16.96 20.05zM9.545 19h.001v.002zM8.207 17.76c-.402 0-.757.182-1.01.462a9.772 9.772 0 0 1-1.06-.655c.414-.241.7-.662.7-1.168 0-.753-.612-1.366-1.369-1.366-.506 0-.927.286-1.165.7-.24-.34-.46-.696-.655-1.06.274-.255.453-.609.453-1.008 0-.707-.547-1.275-1.234-1.341a7.853 7.853 0 0 1-.126-1.397c0-.473.046-.935.126-1.387a1.355 1.355 0 0 0 1.234-1.342c0-.402-.179-.754-.453-1.007.193-.368.413-.722.655-1.06.238.412.659.7 1.165.7.757 0 1.37-.616 1.37-1.37 0-.506-.287-.926-.701-1.168a9.76 9.76 0 0 1 1.06-.653c.253.273.608.453 1.01.453.706 0 1.273-.547 1.34-1.234.454-.08.914-.128 1.387-.128.482 0 .94.048 1.395.128a1.355 1.355 0 0 0 1.341 1.234c.4 0 .753-.179 1.007-.453.369.192.721.414 1.062.653-.413.234-.701.662-.701 1.169a1.37 1.37 0 0 0 1.367 1.369c.507 0 .927-.288 1.168-.7.241.338.462.692.654 1.06-.28.253-.462.607-.462 1.007 0 .707.548 1.274 1.243 1.342.08.452.126.913.126 1.387 0 .48-.046.941-.126 1.397-.693.066-1.243.634-1.243 1.341 0 .399.182.745.454 1.001a7.969 7.969 0 0 1-.654 1.06 1.342 1.342 0 0 0-1.16-.693c-.754 0-1.367.613-1.367 1.366 0 .5.279.92.679 1.155-.086.066-.16.146-.253.206l-.027.014c-.247.168-.515.286-.781.426a1.344 1.344 0 0 0-.987-.442c-.707 0-1.275.549-1.342 1.243-.454.08-.913.126-1.395.126A7.96 7.96 0 0 1 9.546 19c-.067-.694-.635-1.241-1.34-1.241zm42.587 35.79a7.479 7.479 0 0 0-9.576-.86l-4.876-4.871 2.114-2.115a5.13 5.13 0 0 1 7.253 0l14.949 14.949a5.12 5.12 0 0 1 0 7.247l-2.114 2.116-6.895-6.887A7.445 7.445 0 0 0 53 58.864a7.497 7.497 0 0 0-2.205-5.313zm-7.573 1.11c1.775-.962 4.17-.648 5.64.82a4.764 4.764 0 0 1 .826 5.645zm4.517-18.407l26.641 26.642L62.9 74.373l-2.427-2.43 2.114-2.108c3.071-3.071 3.071-8.056 0-11.12L47.64 43.768c-3.063-3.063-8.048-3.069-11.119 0L34.84 45.45a6.13 6.13 0 0 1 .36-4.925c.006-.004.019-.012.019-.026.154-.279.308-.528.46-.748.18-.245.362-.493.582-.715l2.783-2.783c.214-.214.453-.392.7-.566.228-.159.473-.313.761-.467.02-.012.039-.034.06-.046a6.134 6.134 0 0 1 2.83-.707c1.647 0 3.19.634 4.344 1.788zM10.934 4.093c-.753 0-1.36.616-1.36 1.37 0 .752.607 1.368 1.36 1.368.762 0 1.367-.616 1.367-1.369s-.605-1.369-1.367-1.369zM8.207 6.831c-.757 0-1.37.613-1.37 1.368a1.368 1.368 0 0 0 2.737 0A1.37 1.37 0 0 0 8.207 6.83zm5.463 0A1.37 1.37 0 0 0 12.301 8.2a1.37 1.37 0 0 0 1.37 1.366 1.37 1.37 0 0 0 1.368-1.366A1.37 1.37 0 0 0 13.67 6.83zm2.737 2.734a1.36 1.36 0 0 0-1.368 1.361 1.36 1.36 0 0 0 1.368 1.37 1.36 1.36 0 0 0 1.36-1.37c0-.753-.607-1.361-1.36-1.361zm-5.473 5.468c-.753 0-1.36.605-1.36 1.366 0 .756.607 1.361 1.36 1.361.762 0 1.367-.605 1.367-1.36a1.36 1.36 0 0 0-1.367-1.367zm0-5.468c-.753 0-1.36.608-1.36 1.361a1.36 1.36 0 0 0 1.36 1.37 1.36 1.36 0 0 0 1.367-1.37 1.36 1.36 0 0 0-1.367-1.361zm-5.467 0a1.365 1.365 0 1 0 0 2.73 1.365 1.365 0 1 0 0-2.73zm2.738 2.73a1.369 1.369 0 1 0 0 2.737 1.37 1.37 0 0 0 1.367-1.368 1.37 1.37 0 0 0-1.367-1.369zm5.464 0c-.753 0-1.37.613-1.37 1.37 0 .752.617 1.367 1.37 1.367.753 0 1.369-.615 1.369-1.368 0-.756-.616-1.369-1.37-1.369zm66.694 52.713L49.672 34.326a8.8 8.8 0 0 0-6.28-2.596c-1.154 0-2.269.22-3.303.634L21.142 14.821c.46-1.21.729-2.517.729-3.892C21.87 4.903 16.966 0 10.93 0 4.905 0 0 4.905 0 10.93c0 6.033 4.904 10.94 10.93 10.94 1.209 0 2.362-.209 3.443-.57l17.984 18.8c-1.267 3.198-.613 6.986 1.97 9.57L65.01 80.362a5.616 5.616 0 0 0 3.984 1.643 5.61 5.61 0 0 0 3.977-1.643l7.387-7.387a5.65 5.65 0 0 0 0-7.964z"/></g></g></g></svg>