<svg xmlns="http://www.w3.org/2000/svg" width="14" height="21" viewBox="0 0 14 21"><g><g><path fill="#fff" d="M6.983 2.743c2.202-.009 4 1.79 4.008 4.008a4.022 4.022 0 0 1-4 4.034c-2.201.008-4.008-1.798-4.016-4.017a4.017 4.017 0 0 1 4.008-4.025zM0 7.23c.084.395.143.799.227 1.168a17.444 17.444 0 0 0 1.512 3.664c.765 1.378 1.58 2.731 2.379 4.093.84 1.428 1.68 2.848 2.52 4.277.026.05.06.1.101.168.042-.059.068-.092.093-.134 1.756-2.816 3.52-5.63 5.26-8.454.698-1.135 1.303-2.32 1.672-3.605.101-.362.152-.74.227-1.11l.026-.075v-.723c-.034-.277-.068-.563-.118-.84A6.99 6.99 0 0 0 8.042.045L7.454-.03h-.891c-.294.042-.597.067-.89.134C3.242.625 1.528 2.02.528 4.297a6.16 6.16 0 0 0-.504 2.084c0 .034-.017.06-.025.093v.756z"/></g></g></svg>